<mxfile host="Electron" modified="2025-05-12T08:41:43.293Z" agent="Mozilla/5.0 (Windows NT 10.0; Win64; x64) AppleWebKit/537.36 (KHTML, like Gecko) draw.io/22.1.2 Chrome/114.0.5735.289 Electron/25.9.4 Safari/537.36" etag="RngzOrfndCLeiv2zP--s" version="22.1.2" type="device">
  <diagram name="第 1 页" id="joGDNJMmEOLA1oqpZUjL">
    <mxGraphModel dx="724" dy="440" grid="1" gridSize="10" guides="1" tooltips="1" connect="1" arrows="1" fold="1" page="1" pageScale="1" pageWidth="827" pageHeight="1169" math="0" shadow="0">
      <root>
        <mxCell id="0" />
        <mxCell id="1" parent="0" />
        <mxCell id="_5nxriBtwaFP88IZnIud-11" value="vmware ubuntu" style="swimlane;fontStyle=0;childLayout=stackLayout;horizontal=1;startSize=30;horizontalStack=0;resizeParent=1;resizeParentMax=0;resizeLast=0;collapsible=1;marginBottom=0;whiteSpace=wrap;html=1;" vertex="1" parent="1">
          <mxGeometry x="600" y="610" width="140" height="120" as="geometry" />
        </mxCell>
        <mxCell id="_5nxriBtwaFP88IZnIud-12" value="python环境" style="text;strokeColor=none;fillColor=none;align=left;verticalAlign=middle;spacingLeft=4;spacingRight=4;overflow=hidden;points=[[0,0.5],[1,0.5]];portConstraint=eastwest;rotatable=0;whiteSpace=wrap;html=1;" vertex="1" parent="_5nxriBtwaFP88IZnIud-11">
          <mxGeometry y="30" width="140" height="30" as="geometry" />
        </mxCell>
        <mxCell id="_5nxriBtwaFP88IZnIud-13" value="HomeAssistant代码" style="text;strokeColor=none;fillColor=none;align=left;verticalAlign=middle;spacingLeft=4;spacingRight=4;overflow=hidden;points=[[0,0.5],[1,0.5]];portConstraint=eastwest;rotatable=0;whiteSpace=wrap;html=1;" vertex="1" parent="_5nxriBtwaFP88IZnIud-11">
          <mxGeometry y="60" width="140" height="30" as="geometry" />
        </mxCell>
        <mxCell id="_5nxriBtwaFP88IZnIud-14" value="pycharm" style="text;strokeColor=none;fillColor=none;align=left;verticalAlign=middle;spacingLeft=4;spacingRight=4;overflow=hidden;points=[[0,0.5],[1,0.5]];portConstraint=eastwest;rotatable=0;whiteSpace=wrap;html=1;" vertex="1" parent="_5nxriBtwaFP88IZnIud-11">
          <mxGeometry y="90" width="140" height="30" as="geometry" />
        </mxCell>
        <mxCell id="_5nxriBtwaFP88IZnIud-23" style="edgeStyle=orthogonalEdgeStyle;rounded=0;orthogonalLoop=1;jettySize=auto;html=1;shape=flexArrow;dashed=1;" edge="1" parent="1" source="_5nxriBtwaFP88IZnIud-15" target="_5nxriBtwaFP88IZnIud-18">
          <mxGeometry relative="1" as="geometry" />
        </mxCell>
        <mxCell id="_5nxriBtwaFP88IZnIud-25" value="写代码" style="edgeLabel;html=1;align=center;verticalAlign=middle;resizable=0;points=[];" vertex="1" connectable="0" parent="_5nxriBtwaFP88IZnIud-23">
          <mxGeometry x="-0.2024" y="-1" relative="1" as="geometry">
            <mxPoint as="offset" />
          </mxGeometry>
        </mxCell>
        <mxCell id="_5nxriBtwaFP88IZnIud-15" value="coder" style="shape=umlActor;verticalLabelPosition=bottom;verticalAlign=top;html=1;outlineConnect=0;" vertex="1" parent="1">
          <mxGeometry x="80" y="655" width="30" height="60" as="geometry" />
        </mxCell>
        <mxCell id="_5nxriBtwaFP88IZnIud-17" value="物理机" style="swimlane;fontStyle=0;childLayout=stackLayout;horizontal=1;startSize=30;horizontalStack=0;resizeParent=1;resizeParentMax=0;resizeLast=0;collapsible=1;marginBottom=0;whiteSpace=wrap;html=1;" vertex="1" parent="1">
          <mxGeometry x="250" y="640" width="140" height="60" as="geometry" />
        </mxCell>
        <mxCell id="_5nxriBtwaFP88IZnIud-18" value="pycharm" style="text;strokeColor=none;fillColor=none;align=left;verticalAlign=middle;spacingLeft=4;spacingRight=4;overflow=hidden;points=[[0,0.5],[1,0.5]];portConstraint=eastwest;rotatable=0;whiteSpace=wrap;html=1;" vertex="1" parent="_5nxriBtwaFP88IZnIud-17">
          <mxGeometry y="30" width="140" height="30" as="geometry" />
        </mxCell>
        <mxCell id="_5nxriBtwaFP88IZnIud-21" style="edgeStyle=orthogonalEdgeStyle;rounded=0;orthogonalLoop=1;jettySize=auto;html=1;entryX=0;entryY=0.5;entryDx=0;entryDy=0;dashed=1;shape=flexArrow;" edge="1" parent="1" source="_5nxriBtwaFP88IZnIud-18" target="_5nxriBtwaFP88IZnIud-13">
          <mxGeometry relative="1" as="geometry" />
        </mxCell>
        <mxCell id="_5nxriBtwaFP88IZnIud-22" value="&amp;nbsp;ip连接虚拟环境" style="edgeLabel;html=1;align=center;verticalAlign=middle;resizable=0;points=[];" vertex="1" connectable="0" parent="_5nxriBtwaFP88IZnIud-21">
          <mxGeometry x="-0.0971" y="-2" relative="1" as="geometry">
            <mxPoint as="offset" />
          </mxGeometry>
        </mxCell>
      </root>
    </mxGraphModel>
  </diagram>
</mxfile>
